<svg xmlns="http://www.w3.org/2000/svg" viewBox="0 0 32 32">
  <rect width="32" height="32" fill="#FF385C" rx="6"/>
  <path fill="white" transform="translate(4, 3) scale(0.75)" d="M16 1c2.008 0 3.463.963 4.751 3.269l.533 1.025c1.954 3.83 6.114 12.54 7.1 14.836l.145.353c.667 1.591.91 2.472.96 3.396l.01.415.001.228c0 4.062-2.877 6.478-6.357 6.478-2.224 0-4.556-1.258-6.709-3.386l-.257-.26-.172-.179h-.212l-.257.26c-2.118 2.098-4.413 3.345-6.597 3.386l-.225.002c-3.48 0-6.357-2.416-6.357-6.478 0-1.665.42-3.011 1.116-4.395l.366-.723c.987-2.296 5.147-11.005 7.1-14.836l.533-1.025C12.537 1.963 13.992 1 16 1z"/>
</svg>
