<svg xmlns="http://www.w3.org/2000/svg" viewBox="0 0 32 32" fill="#FF385C">
  <path d="M16 1c2.008 0 3.463.963 4.751 3.269l.533 1.025c1.954 3.83 6.114 12.54 7.1 14.836l.145.353c.667 1.591.91 2.472.96 3.396l.01.415.001.228c0 4.062-2.877 6.478-6.357 6.478-2.224 0-4.556-1.258-6.709-3.386l-.257-.26-.172-.179h-.212l-.257.26c-2.118 2.098-4.413 3.345-6.597 3.386l-.225.002c-3.48 0-6.357-2.416-6.357-6.478 0-1.665.42-3.011 1.116-4.395l.366-.723c.987-2.296 5.147-11.005 7.1-14.836l.533-1.025C12.537 1.963 13.992 1 16 1zm0 2c-1.239 0-2.053.539-2.987 2.21l-.523 1.008c-1.926 3.776-6.06 12.43-7.031 14.692l-.345.836c-.427 1.071-.573 1.655-.605 2.24l-.009.33v.206c0 2.564 1.724 4.478 4.357 4.478 1.603 0 3.402-.982 5.129-2.663l.475-.467.249-.256.392-.421h1.896l.392.421.249.256.475.467c1.727 1.681 3.526 2.663 5.129 2.663 2.633 0 4.357-1.914 4.357-4.478v-.206l-.004-.166c-.024-.68-.166-1.312-.601-2.395l-.35-.845c-.971-2.262-5.105-10.916-7.031-14.692l-.523-1.008C18.053 3.539 17.239 3 16 3z"/>
</svg>
